# xmcd CD database file
#
# Track frame offsets:
#	182
#	18532
#	38850
#	68150
#
# Disc length: 1296 seconds
#
# Revision: 1
# Processed by: cddbd v1.5.2PL0 Copyright (c) Steve Scherf et al.
# Submitted via: CDex 1.51
#
DISCID=2e050e04
DTITLE=A.C Acoustics - Hand Passes Plenty CDS
DYEAR=1994
DGENRE=Indie Rock
TTITLE0=Hand Passes Plenty
TTITLE1=Love Lies Broken Pieces
TTITLE2=Love Lies (Equamneno Mix)
TTITLE3=Emily
EXTD=YEAR: 1994
EXTT0=
EXTT1=
EXTT2=
EXTT3=
PLAYORDER=
